<svg width="1" height="1" viewBox="0 0 1 1" fill="none" xmlns="http://www.w3.org/2000/svg">
<g clip-path="url(#clip0_52_2)">
<rect width="1" height="1" fill="white"/>
<path d="M269 -164H-11V11H269V-164Z" fill="white"/>
<path fill-rule="evenodd" clip-rule="evenodd" d="M0.50133 0.8759C0.597658 0.874979 0.693018 0.834979 0.761596 0.767057C0.843049 0.686369 0.884986 0.56701 0.870361 0.453057C0.845283 0.25776 0.685127 0.125244 0.498924 0.125244C0.357471 0.125244 0.219971 0.213947 0.159658 0.342572C0.113486 0.441041 0.113408 0.559932 0.159658 0.658588C0.219533 0.786307 0.354783 0.874541 0.496518 0.8759C0.498127 0.875916 0.499721 0.875916 0.50133 0.8759V0.8759ZM0.496924 0.813354C0.353049 0.811963 0.218814 0.700432 0.192111 0.557447C0.173299 0.456635 0.20883 0.347557 0.282814 0.275963C0.369221 0.192369 0.505002 0.164354 0.617893 0.211744C0.718924 0.25415 0.794518 0.352588 0.808455 0.461041C0.820393 0.553994 0.787111 0.651416 0.721721 0.718541C0.664346 0.7774 0.583908 0.812541 0.500924 0.813354C0.499596 0.813354 0.498252 0.813354 0.496924 0.813354V0.813354ZM0.303455 0.652572L0.455549 0.500479L0.303299 0.348229L0.347111 0.304432L0.499361 0.456682L0.65683 0.299213L0.700705 0.343072L0.543236 0.500557L0.701018 0.658338L0.657221 0.70215L0.499424 0.544354L0.34733 0.696447L0.303455 0.652572Z" fill="white"/>
</g>
<defs>
<clipPath id="clip0_52_2">
<rect width="1" height="1" fill="white"/>
</clipPath>
</defs>
</svg>
