<svg width="62" height="62" viewBox="0 0 62 62" fill="none" xmlns="http://www.w3.org/2000/svg">
<path d="M31 60.0625C47.0508 60.0625 60.0625 47.0508 60.0625 31C60.0625 14.9492 47.0508 1.9375 31 1.9375C14.9492 1.9375 1.9375 14.9492 1.9375 31C1.9375 47.0508 14.9492 60.0625 31 60.0625Z" fill="#575757"/>
<path d="M47.8402 31.447C47.7992 30.9938 47.4406 30.6334 46.9872 30.5904L44.1265 30.3209C43.7394 30.2853 43.4109 30.0139 43.311 29.6374C43.0183 28.5471 42.5864 27.5156 42.0351 26.5609C41.8406 26.2236 41.8798 25.7988 42.1278 25.4991L43.9624 23.2845C44.2532 22.9348 44.2496 22.4261 43.9588 22.0764C43.311 21.3054 42.5991 20.5917 41.8299 19.9474C41.4802 19.6548 40.9715 19.653 40.62 19.9439L38.4072 21.7784C38.1057 22.0264 37.6826 22.0657 37.3436 21.8694C36.3907 21.3181 35.3574 20.8843 34.2671 20.5917C33.8906 20.4918 33.621 20.1633 33.5835 19.7761L33.3159 16.9173C33.2731 16.4641 32.9127 16.1071 32.4593 16.066C31.9631 16.0214 31.4617 16 30.953 16C30.4445 16 29.943 16.0214 29.447 16.066C28.9938 16.1071 28.6332 16.4639 28.5903 16.9173L28.3227 19.7761C28.2853 20.1633 28.0158 20.4918 27.6392 20.5917C26.5488 20.8843 25.5156 21.3181 24.5626 21.8694C24.2236 22.0657 23.8006 22.0264 23.499 21.7784L21.2862 19.9439C20.9348 19.653 20.4261 19.6548 20.0764 19.9474C19.3072 20.5917 18.5951 21.3056 17.9474 22.0764C17.6566 22.4261 17.653 22.9348 17.9439 23.2845L19.7784 25.4973C20.0264 25.7988 20.0657 26.2236 19.8694 26.5608C19.3161 27.5156 18.8843 28.5488 18.5935 29.6374C18.4918 30.0139 18.1635 30.2853 17.7761 30.3227L14.9173 30.5904C14.4659 30.6332 14.107 30.9936 14.066 31.4452C14.0214 31.9412 14 32.4445 14 32.9532C14 33.4599 14.0214 33.9633 14.066 34.4593C14.1071 34.9125 14.4657 35.2713 14.9173 35.3141L17.7762 35.5835C18.1633 35.6192 18.4918 35.8906 18.5935 36.2671C18.8843 37.3574 19.3163 38.3889 19.8694 39.3436C20.0657 39.6808 20.0264 40.1057 19.7784 40.4072L17.9439 42.6202C17.653 42.9699 17.6566 43.4804 17.9474 43.8283C18.5953 44.6009 19.3072 45.3129 20.0764 45.9572C20.4261 46.2498 20.9348 46.2516 21.2863 45.9608L23.4991 44.128C23.8006 43.8783 24.2236 43.839 24.5608 44.0353C25.5156 44.5868 26.5488 45.0186 27.6392 45.3094C28.0139 45.4111 28.2853 45.7376 28.3227 46.1267L28.5904 48.9874C28.6332 49.4406 28.9936 49.7994 29.447 49.8387C29.9432 49.8833 30.4445 49.9065 30.953 49.9065C31.4617 49.9065 31.9631 49.8833 32.4593 49.8387C32.9125 49.7994 33.2731 49.4408 33.3159 48.9874L33.5835 46.1267C33.621 45.7376 33.8922 45.4111 34.2671 45.3094C35.3574 45.0186 36.3907 44.5866 37.3454 44.0353C37.6826 43.839 38.1057 43.8783 38.4072 44.128L40.62 45.9608C40.9715 46.2516 41.4802 46.2498 41.8299 45.9572C42.5991 45.3129 43.3112 44.6011 43.9588 43.8283C44.2496 43.4802 44.2532 42.9699 43.9624 42.6202L42.1278 40.4056C41.8798 40.1059 41.8406 39.6828 42.0351 39.3438C42.5866 38.3891 43.0184 37.3576 43.311 36.2673C43.4109 35.8908 43.7394 35.6194 44.1265 35.5837L46.9872 35.3143C47.4404 35.2715 47.7992 34.9129 47.8402 34.4595C47.8848 33.9633 47.9063 33.4601 47.9063 32.9534C47.9062 32.4445 47.8848 31.9432 47.8402 31.447ZM30.9528 40.7892C26.6254 40.7892 23.1151 37.2809 23.1151 32.9532C23.1151 28.6238 26.6252 25.1155 30.9528 25.1155C35.2805 25.1155 38.7906 28.624 38.7906 32.9532C38.7906 37.2807 35.2805 40.7892 30.9528 40.7892Z" fill="black"/>
<path d="M47.8871 28.7672C47.8461 28.314 47.4874 27.9536 47.0341 27.9105L44.1734 27.6411C43.7862 27.6054 43.4577 27.3341 43.3578 26.9576C43.0652 25.8672 42.6332 24.8358 42.0819 23.881C41.8875 23.5438 41.9267 23.119 42.1747 22.8192L44.0093 20.6047C44.3001 20.255 44.2965 19.7463 44.0057 19.3966C43.3578 18.6256 42.6459 17.9119 41.8767 17.2676C41.527 16.975 41.0184 16.9732 40.6669 17.2641L38.4541 19.0986C38.1525 19.3466 37.7295 19.3859 37.3905 19.1896C36.4375 18.6383 35.4043 18.2045 34.3139 17.9119C33.9375 17.812 33.6679 17.4835 33.6304 17.0963L33.3628 14.2375C33.3199 13.7843 32.9595 13.4272 32.5062 13.3862C32.0099 13.3416 31.5086 13.3202 30.9999 13.3202C30.4914 13.3202 29.9898 13.3416 29.4938 13.3862C29.0406 13.4272 28.68 13.7841 28.6372 14.2375L28.3696 17.0963C28.3321 17.4835 28.0627 17.812 27.686 17.9119C26.5957 18.2045 25.5625 18.6383 24.6095 19.1896C24.2705 19.3859 23.8475 19.3466 23.5459 19.0986L21.3331 17.2641C20.9816 16.9732 20.4729 16.975 20.1232 17.2676C19.3541 17.9119 18.642 18.6258 17.9943 19.3966C17.7035 19.7463 17.6999 20.255 17.9907 20.6047L19.8253 22.8175C20.0733 23.119 20.1125 23.5438 19.9163 23.881C19.363 24.8358 18.9312 25.869 18.6404 26.9576C18.5387 27.3341 18.2104 27.6054 17.823 27.6429L14.9641 27.9105C14.5127 27.9534 14.1539 28.3138 14.1129 28.7654C14.0683 29.2614 14.0469 29.7647 14.0469 30.2734C14.0469 30.7801 14.0683 31.2835 14.1129 31.7795C14.1539 32.2327 14.5126 32.5915 14.9642 32.6343L17.823 32.9037C18.2102 32.9394 18.5387 33.2108 18.6404 33.5873C18.9312 34.6776 19.3632 35.7091 19.9163 36.6638C20.1125 37.001 20.0733 37.4259 19.8253 37.7274L17.9907 39.9404C17.6999 40.2901 17.7035 40.8006 17.9943 41.1485C18.6422 41.921 19.3541 42.6331 20.1232 43.2774C20.4729 43.57 20.9816 43.5718 21.3331 43.281L23.5459 41.4482C23.8475 41.1984 24.2705 41.1592 24.6077 41.3554C25.5625 41.907 26.5957 42.3387 27.6861 42.6296C28.0607 42.7313 28.3321 43.0578 28.3696 43.4469L28.6372 46.3076C28.68 46.7608 29.0405 47.1196 29.4938 47.1588C29.99 47.2034 30.4914 47.2266 30.9999 47.2266C31.5086 47.2266 32.01 47.2035 32.5062 47.1588C32.9593 47.1196 33.3199 46.761 33.3628 46.3076L33.6304 43.4469C33.6679 43.0578 33.9391 42.7313 34.3139 42.6296C35.4043 42.3387 36.4375 41.9068 37.3923 41.3555C37.7295 41.1592 38.1525 41.1984 38.4541 41.4482L40.6669 43.281C41.0184 43.5718 41.5271 43.57 41.8768 43.2774C42.6459 42.6331 43.358 41.9212 44.0057 41.1485C44.2965 40.8004 44.3001 40.2901 44.0093 39.9404L42.1747 37.7258C41.9267 37.4261 41.8875 37.003 42.0819 36.664C42.6334 35.7093 43.0652 34.6778 43.3578 33.5875C43.4577 33.211 43.7862 32.9396 44.1734 32.9039L47.0341 32.6345C47.4873 32.5917 47.8461 32.2331 47.8871 31.7797C47.9317 31.2835 47.9531 30.7803 47.9531 30.2736C47.9531 29.7647 47.9317 29.2634 47.8871 28.7672ZM30.9997 38.1094C26.6722 38.1094 23.1619 34.6011 23.1619 30.2734C23.1619 25.944 26.672 22.4356 30.9997 22.4356C35.3274 22.4356 38.8375 25.9442 38.8375 30.2734C38.8375 34.6009 35.3274 38.1094 30.9997 38.1094Z" fill="white"/>
</svg>
