<svg width="46" height="45" viewBox="0 0 46 45" fill="none" xmlns="http://www.w3.org/2000/svg">
<g clip-path="url(#clip0_29_229)">
<path d="M39.2238 19.9856C37.9072 16.5248 34.5288 14.0625 30.5703 14.0625C29.6589 14.0625 28.7787 14.1933 27.9455 14.4366C25.6904 10.8352 21.6594 8.4375 17.0625 8.4375C10.0882 8.4375 4.41777 13.9556 4.26847 20.8167C1.71763 22.2778 0 25.0073 0 28.125C0 32.7825 3.82058 36.5625 8.53125 36.5625H36.9688C41.678 36.5625 45.5 32.7755 45.5 28.125C45.5 24.2353 42.8411 20.963 39.2238 19.9856ZM36.973 33.75H8.52698C5.39459 33.75 2.84375 31.2314 2.84375 28.125C2.84375 25.463 4.71778 23.2284 7.23166 22.6463C7.15203 22.1414 7.10938 21.6225 7.10938 21.0938C7.10938 15.6572 11.5655 11.25 17.0625 11.25C21.5585 11.25 25.3577 14.1989 26.5919 18.2461C27.6853 17.3869 29.0645 16.875 30.5703 16.875C33.8634 16.875 36.5777 19.3359 36.9304 22.5H36.973C40.1054 22.5 42.6562 25.0186 42.6562 28.125C42.6562 31.2258 40.1125 33.75 36.973 33.75Z" fill="#777777"/>
</g>
<defs>
<clipPath id="clip0_29_229">
<rect width="45.5" height="45" fill="white"/>
</clipPath>
</defs>
</svg>
