<svg width="25" height="25" viewBox="0 0 25 25" fill="none" xmlns="http://www.w3.org/2000/svg">
<path d="M9.13921 2.24023C5.3335 2.24023 2.23743 5.33607 2.23743 9.14162C2.23743 10.9853 2.95523 12.7185 4.25853 14.0221C5.56205 15.3256 7.29532 16.0436 9.13915 16.0436C10.9823 16.0436 12.7153 15.3258 14.019 14.0221C15.323 12.7182 16.0409 10.9851 16.0409 9.14178C16.041 5.3363 12.9449 2.24023 9.13921 2.24023ZM13.405 13.4076C12.2654 14.5471 10.7505 15.1749 9.13921 15.1749C7.52738 15.1749 6.0121 14.5471 4.87288 13.408C3.73366 12.2686 3.10624 10.7537 3.10624 9.14184C3.10624 5.81547 5.81289 3.10921 9.13927 3.10921C12.4658 3.10921 15.1723 5.81547 15.1723 9.14201C15.1722 10.753 14.5448 12.2682 13.405 13.4076Z" fill="white"/>
<path d="M24.1935 20.3099L18.752 14.8685L17.8551 15.7654L16.5636 14.4742C19.1657 10.8614 18.7812 5.85582 15.6035 2.67775C13.8768 0.95099 11.5809 0 9.13916 0C9.139 0 9.13933 0 9.139 0C6.69761 0 4.40158 0.95099 2.6755 2.67752C-0.888877 6.24212 -0.888877 12.0417 2.6755 15.6057C5.85301 18.784 10.8586 19.1686 14.4716 16.5661L15.7634 17.8573L14.8661 18.755L20.3074 24.1961C20.8432 24.7318 21.5467 25 22.2504 25C22.9539 24.9996 23.658 24.7318 24.1935 24.1961C24.7124 23.6774 24.9983 22.9874 24.9985 22.2532C24.9985 21.5192 24.7126 20.8289 24.1935 20.3099ZM23.5796 23.5818C22.8465 24.3145 21.6542 24.3145 20.9216 23.5818L16.0944 18.755L17.423 17.4257L16.8087 16.8114L16.3772 17.243L14.5461 15.4124L14.2434 15.6507C10.9574 18.2336 6.24836 17.9504 3.28973 14.9916C0.064149 11.7662 0.064149 6.51757 3.28973 3.29181C4.85219 1.72919 6.92961 0.868753 9.13933 0.868753C11.3491 0.868753 13.4267 1.72942 14.9891 3.29198C17.9479 6.25095 18.2311 10.9602 15.648 14.2462L15.41 14.5489L17.8554 16.994L18.7523 16.097L23.5795 20.9238C23.9344 21.2791 24.1301 21.7507 24.1301 22.253C24.13 22.7549 23.9344 23.227 23.5796 23.5818Z" fill="white"/>
<path d="M22.15 22.3534L20.9245 21.1275L20.31 21.7418L21.5359 22.9681C21.7934 23.2253 22.0939 23.2637 22.25 23.2637C22.4064 23.2637 22.707 23.2253 22.9649 22.9673L22.3506 22.353C22.2954 22.4084 22.2047 22.4081 22.15 22.3534Z" fill="white"/>
<path d="M5.69372 5.69649C4.77209 6.61835 4.26452 7.8419 4.26452 9.14214H5.13328C5.13328 8.07396 5.55046 7.0685 6.30824 6.31095C7.0658 5.55339 8.07086 5.13621 9.13881 5.13621H9.13921V4.26746C9.13921 4.26746 9.13904 4.26746 9.13881 4.26746C7.83857 4.26751 6.61519 4.77502 5.69372 5.69649Z" fill="white"/>
</svg>
