<svg width="55" height="55" viewBox="0 0 55 55" fill="none" xmlns="http://www.w3.org/2000/svg">
<path d="M27.5 0C12.3026 0 0 12.3026 0 27.5C0 42.6974 12.3026 55 27.5 55C42.6974 55 55 42.6974 55 27.5C55 12.3026 42.6974 0 27.5 0ZM27.5 52.1053C13.8947 52.1053 2.89474 41.1053 2.89474 27.5C2.89474 13.8947 13.8947 2.89474 27.5 2.89474C41.1053 2.89474 52.1053 13.8947 52.1053 27.5C52.1053 41.1053 41.1053 52.1053 27.5 52.1053ZM41.6118 27.5C41.6118 28.2961 40.9605 28.9474 40.1645 28.9474H14.8355C14.0395 28.9474 13.3882 28.2961 13.3882 27.5C13.3882 26.7039 14.0395 26.0526 14.8355 26.0526H40.1645C40.9605 26.0526 41.6118 26.7039 41.6118 27.5ZM41.6118 36.1842C41.6118 36.9803 40.9605 37.6316 40.1645 37.6316H14.8355C14.0395 37.6316 13.3882 36.9803 13.3882 36.1842C13.3882 35.3882 14.0395 34.7368 14.8355 34.7368H40.1645C40.9605 34.7368 41.6118 35.3882 41.6118 36.1842ZM41.6118 18.8158C41.6118 19.6118 40.9605 20.2632 40.1645 20.2632H14.8355C14.0395 20.2632 13.3882 19.6118 13.3882 18.8158C13.3882 18.0197 14.0395 17.3684 14.8355 17.3684H40.1645C40.9605 17.3684 41.6118 18.0197 41.6118 18.8158Z" fill="white"/>
</svg>
