<svg width="46" height="45" viewBox="0 0 46 45" fill="none" xmlns="http://www.w3.org/2000/svg">
<g clip-path="url(#clip0_29_106)">
<path d="M28.4375 35.8594C27.6512 35.8594 27.0156 36.4823 27.0156 37.2797V40.0641C27.0156 40.8487 27.6455 41.4844 28.4375 41.4844C29.2238 41.4844 29.8594 40.8614 29.8594 40.0641V37.2797C29.8594 36.495 29.2295 35.8594 28.4375 35.8594Z" fill="#777777"/>
<path d="M17.0625 35.8594C16.2762 35.8594 15.6406 36.4823 15.6406 37.2797V40.0641C15.6406 40.8487 16.2719 41.4844 17.0625 41.4844C17.8488 41.4844 18.4844 40.8614 18.4844 40.0641V37.2797C18.4844 36.495 17.8531 35.8594 17.0625 35.8594Z" fill="#777777"/>
<path d="M34.125 33.0469C33.3387 33.0469 32.7031 33.6698 32.7031 34.4672V37.2516C32.7031 38.0362 33.333 38.6719 34.125 38.6719C34.9113 38.6719 35.5469 38.0489 35.5469 37.2516V34.4672C35.5469 33.6825 34.917 33.0469 34.125 33.0469Z" fill="#777777"/>
<path d="M22.75 33.0469C21.9637 33.0469 21.3281 33.6698 21.3281 34.4672V37.2516C21.3281 38.0362 21.9594 38.6719 22.75 38.6719C23.5363 38.6719 24.1719 38.0489 24.1719 37.2516V34.4672C24.1719 33.6825 23.542 33.0469 22.75 33.0469Z" fill="#777777"/>
<path d="M11.375 33.0469C10.5887 33.0469 9.95312 33.6698 9.95312 34.4672V37.2516C9.95312 38.0362 10.5844 38.6719 11.375 38.6719C12.1613 38.6719 12.7969 38.0489 12.7969 37.2516V34.4672C12.7969 33.6825 12.1656 33.0469 11.375 33.0469Z" fill="#777777"/>
<path d="M39.2238 15.0637C37.9072 11.603 34.5288 9.14062 30.5703 9.14062C29.6589 9.14062 28.7787 9.27141 27.9455 9.51469C25.6904 5.91328 21.6594 3.51562 17.0625 3.51562C10.0896 3.51562 4.41634 9.03375 4.26847 15.8948C1.7162 17.3559 0 20.0855 0 23.2031C0 27.8606 3.82058 31.6406 8.53125 31.6406H36.9688C41.678 31.6406 45.5 27.8536 45.5 23.2031C45.5 19.3148 42.8411 16.0411 39.2238 15.0637ZM36.973 28.8281H8.52698C5.39459 28.8281 2.84375 26.3095 2.84375 23.2031C2.84375 20.5425 4.71636 18.3066 7.23308 17.7244C7.15061 17.2195 7.10938 16.7006 7.10938 16.1719C7.10938 10.7353 11.5655 6.32812 17.0625 6.32812C21.5585 6.32812 25.3577 9.27703 26.5919 13.3242C27.6853 12.465 29.0645 11.9531 30.5703 11.9531C33.8634 11.9531 36.5777 14.4141 36.9304 17.5781H36.973C40.1054 17.5781 42.6562 20.0967 42.6562 23.2031C42.6562 26.3039 40.1125 28.8281 36.973 28.8281Z" fill="#777777"/>
</g>
<defs>
<clipPath id="clip0_29_106">
<rect width="45.5" height="45" fill="white"/>
</clipPath>
</defs>
</svg>
