<svg width="65" height="65" viewBox="0 0 65 65" fill="none" xmlns="http://www.w3.org/2000/svg">
<g clip-path="url(#clip0_25_24)">
<path d="M42.7359 19.4872L47.0085 15.1939L49.1658 30.038L34.3115 27.9527L38.4867 23.7572C33.1752 19.5253 25.4184 19.8772 20.5152 24.8042C15.2566 30.0885 15.2773 38.6373 20.5616 43.896C25.8458 49.1547 34.3947 49.1339 39.6534 43.8497C40.011 43.4903 40.3432 43.114 40.6541 42.7293L44.924 46.9786C44.6004 47.3548 44.2618 47.7248 43.9063 48.082C36.3093 55.716 23.9632 55.746 16.3292 48.1489C8.69523 40.5519 8.66527 28.2059 16.2623 20.5719C23.5038 13.2951 35.0599 12.9276 42.7359 19.4872Z" fill="white"/>
</g>
<defs>
<clipPath id="clip0_25_24">
<rect width="45" height="45" fill="white" transform="matrix(-0.708821 -0.705388 -0.705388 0.708821 64.0202 32.1232)"/>
</clipPath>
</defs>
</svg>
