<svg width="46" height="45" viewBox="0 0 46 45" fill="none" xmlns="http://www.w3.org/2000/svg">
<g clip-path="url(#clip0_29_202)">
<path d="M28.934 39.3729C28.1478 39.3729 27.5123 39.9958 27.5123 40.793V43.577C27.5123 44.3616 28.1421 44.9972 28.934 44.9972C29.7201 44.9972 30.3556 44.3743 30.3556 43.577V40.793C30.3556 40.0084 29.7258 39.3729 28.934 39.3729Z" fill="#777777"/>
<path d="M17.5604 39.3729C16.7742 39.3729 16.1387 39.9958 16.1387 40.793V43.577C16.1387 44.3616 16.7699 44.9972 17.5604 44.9972C18.3466 44.9972 18.9821 44.3743 18.9821 43.577V40.793C18.9821 40.0084 18.3508 39.3729 17.5604 39.3729Z" fill="#777777"/>
<path d="M34.6207 36.5607C33.8345 36.5607 33.199 37.1836 33.199 37.9809V40.7649C33.199 41.5495 33.8288 42.185 34.6207 42.185C35.4069 42.185 36.0424 41.5621 36.0424 40.7649V37.9809C36.0424 37.1963 35.4126 36.5607 34.6207 36.5607Z" fill="#777777"/>
<path d="M39.7189 18.5799C39.4744 17.9387 39.1602 17.3327 38.7863 16.7703C38.8531 16.3456 38.8858 15.9112 38.8858 15.4696C38.8858 10.8113 35.0643 7.0332 30.3556 7.0332C28.1762 7.0332 26.1872 7.8417 24.6802 9.17184C22.6444 7.82201 20.1962 7.0332 17.5604 7.0332C10.5884 7.0332 4.91579 12.5506 4.76794 19.4109C2.21599 20.8718 0.5 23.601 0.5 26.7182C0.5 31.3752 4.32152 35.1547 9.03018 35.1547H37.4641C42.1728 35.1547 45.9943 31.3681 45.9943 26.7182C45.9943 22.8304 43.3357 19.5571 39.7189 18.5799ZM30.3556 9.84535C32.9701 9.84535 35.1738 11.5903 35.8363 13.9694C34.4444 13.137 32.8138 12.6575 31.0665 12.6575C30.1552 12.6575 29.2752 12.7883 28.4449 13.0315C27.9914 12.3074 27.4668 11.6339 26.881 11.018C27.8392 10.2826 29.0463 9.84535 30.3556 9.84535ZM37.4684 32.3425H9.02592C5.89392 32.3425 3.34339 29.8243 3.34339 26.7182C3.34339 24.0565 5.21577 21.8223 7.73217 21.2402C7.64972 20.7354 7.60849 20.2166 7.60849 19.6879C7.60849 14.252 12.0641 9.84535 17.5604 9.84535C22.0558 9.84535 25.8545 12.7939 27.0886 16.8406C28.1819 15.9815 29.5609 15.4696 31.0665 15.4696C34.3591 15.4696 37.0732 17.9303 37.4257 21.0939H37.4684C40.6004 21.0939 43.1509 23.6122 43.1509 26.7182C43.1509 29.8186 40.6075 32.3425 37.4684 32.3425Z" fill="#777777"/>
<path d="M23.2472 36.5607C22.461 36.5607 21.8255 37.1836 21.8255 37.9809V40.7649C21.8255 41.5495 22.4567 42.185 23.2472 42.185C24.0334 42.185 24.6688 41.5621 24.6688 40.7649V37.9809C24.6688 37.1963 24.039 36.5607 23.2472 36.5607Z" fill="#777777"/>
<path d="M39.4161 8.5025L41.4065 6.53259C41.9695 5.97859 41.9738 5.08855 41.4179 4.53456C40.862 3.98619 39.9663 3.98197 39.3962 4.5444L37.4058 6.51431C36.8443 7.0683 36.8372 7.95835 37.3959 8.51234C37.9518 9.06071 38.8474 9.06493 39.4161 8.5025Z" fill="#777777"/>
<path d="M11.8736 36.5607C11.0874 36.5607 10.4519 37.1836 10.4519 37.9809V40.7649C10.4519 41.5495 11.0831 42.185 11.8736 42.185C12.6598 42.185 13.2953 41.5621 13.2953 40.7649V37.9809C13.2953 37.1963 12.664 36.5607 11.8736 36.5607Z" fill="#777777"/>
<path d="M30.3556 5.6271C31.1418 5.6271 31.7773 5.00421 31.7773 4.20697V1.42294C31.7773 0.638353 31.1475 0.00280762 30.3556 0.00280762C29.5694 0.00280762 28.9339 0.625698 28.9339 1.42294V4.20697C28.9339 4.99156 29.5638 5.6271 30.3556 5.6271Z" fill="#777777"/>
<path d="M40.3132 15.4752C40.3132 16.2514 40.943 16.8813 41.7491 16.8813H44.5641C45.3574 16.8813 46 16.257 46 15.4752C46 14.6977 45.3702 14.0692 44.5641 14.0692H41.7491C40.9558 14.0692 40.3132 14.692 40.3132 15.4752Z" fill="#777777"/>
</g>
<defs>
<clipPath id="clip0_29_202">
<rect width="45.5" height="45" fill="white" transform="translate(0.5)"/>
</clipPath>
</defs>
</svg>
