<svg width="46" height="45" viewBox="0 0 46 45" fill="none" xmlns="http://www.w3.org/2000/svg">
<g clip-path="url(#clip0_29_247)">
<path d="M39.7189 19.986C39.4744 19.3448 39.1602 18.7388 38.7863 18.1763C38.8531 17.7517 38.8858 17.3172 38.8858 16.8757C38.8858 12.2174 35.0643 8.43927 30.3556 8.43927C28.1762 8.43927 26.1872 9.24776 24.6802 10.5779C22.6444 9.22808 20.1962 8.43927 17.5604 8.43927C10.5884 8.43927 4.91579 13.9567 4.76794 20.8169C2.21599 22.2779 0.5 25.007 0.5 28.1243C0.5 32.7812 4.32152 36.5608 9.03018 36.5608H14.4326L15.57 33.7486H9.02592C5.89392 33.7486 3.34339 31.2303 3.34339 28.1243C3.34339 25.4626 5.21577 23.2284 7.73217 22.6462C7.64972 22.1415 7.60849 21.6226 7.60849 21.0939C7.60849 15.6581 12.0641 11.2514 17.5604 11.2514C22.0558 11.2514 25.8545 14.2 27.0886 18.2466C28.1819 17.3875 29.5609 16.8757 31.0665 16.8757C34.3591 16.8757 37.0732 19.3363 37.4257 22.5H37.4684C40.6004 22.5 43.1509 25.0183 43.1509 28.1243C43.1509 31.2247 40.6075 33.7486 37.4684 33.7486H33.199L30.3556 36.5608H37.4641C42.1728 36.5608 45.9943 32.7742 45.9943 28.1243C45.9943 24.2351 43.3357 20.9632 39.7189 19.986ZM31.0665 14.0636C30.1552 14.0636 29.2752 14.1943 28.4449 14.4376C27.9914 13.7135 27.4668 13.0399 26.881 12.4241C27.8392 11.6887 29.0463 11.2514 30.3556 11.2514C32.9701 11.2514 35.1738 12.9964 35.8363 15.3754C34.4444 14.543 32.8138 14.0636 31.0665 14.0636Z" fill="#777777"/>
<path d="M27.5122 26.7182H21.4189L17.5604 36.5607H21.0137L18.9821 43.5911L28.9339 33.7486H24.0305L27.5122 26.7182Z" fill="#777777"/>
<path d="M39.4161 9.90856L41.4065 7.93865C41.9695 7.38466 41.9738 6.49462 41.4179 5.94062C40.862 5.39225 39.9663 5.38804 39.3962 5.95047L37.4058 7.92038C36.8443 8.47437 36.8372 9.36441 37.3959 9.91841C37.9518 10.4668 38.8474 10.471 39.4161 9.90856Z" fill="#777777"/>
<path d="M30.3556 7.03317C31.1418 7.03317 31.7773 6.41028 31.7773 5.61304V2.82901C31.7773 2.04442 31.1475 1.40887 30.3556 1.40887C29.5694 1.40887 28.9339 2.03177 28.9339 2.82901V5.61304C28.9339 6.39763 29.5638 7.03317 30.3556 7.03317Z" fill="#777777"/>
<path d="M40.3132 16.8813C40.3132 17.6574 40.943 18.2874 41.7491 18.2874H44.5641C45.3574 18.2874 46 17.6631 46 16.8813C46 16.1037 45.3702 15.4752 44.5641 15.4752H41.7491C40.9558 15.4752 40.3132 16.0981 40.3132 16.8813Z" fill="#777777"/>
</g>
<defs>
<clipPath id="clip0_29_247">
<rect width="45.5" height="45" fill="white" transform="translate(0.5)"/>
</clipPath>
</defs>
</svg>
